<svg xmlns="http://www.w3.org/2000/svg" width="24" height="24"><path d="M3.664 3.063a1.005 1.005 0 0 0-.533.448L3.02 3.7l-.011 2.15L2.997 8H8V3l-2.09.003c-1.709.002-2.118.013-2.246.06M10 5.5V8h4V3h-4v2.5m6 0V8h5V5.927c0-2.346.002-2.327-.299-2.628C20.4 2.998 20.419 3 18.073 3H16v2.5M3 12v2h5v-4H3v2m7 0v2h4v-4h-4v2m6 0v2h5v-4h-5v2M3.009 18.15l.011 2.15.111.189c.061.103.17.234.243.289.289.221.302.222 2.551.222H8v-5H2.997l.012 2.15M10 18.5V21h4v-5h-4v2.5m6 0V21h2.073c2.346 0 2.327.002 2.628-.299.301-.301.299-.282.299-2.628V16h-5v2.5" fill-rule="evenodd"/></svg>